<?xml version="1.0" encoding="utf-8"?>
<svg version="1.1" id="Layer_1" xmlns="http://www.w3.org/2000/svg" xmlns:xlink="http://www.w3.org/1999/xlink" x="0px" y="0px"
	 viewBox="0 0 289.4 98.5" style="enable-background:new 0 0 289.4 98.5;" xml:space="preserve">
  <g>
    <path fill="#EDB51E" d="M98.5,49.2c0,27.2-22,49.2-49.2,49.2S0,76.4,0,49.2C0,22,22,0,49.2,0c0,0,0,0,0,0C76.4,0,98.5,22,98.5,49.2z" />
    <path fill="#A6802D" d="M66,70.2l21.5-14.9l8.6,9.2c-6.6,20.2-25.5,33.9-46.8,33.9l-9.9-10"/>
    <path fill="#A5213A" d="M90.8,49.2c0,23-18.6,41.6-41.5,41.6S7.7,72.2,7.7,49.3c0-23,18.6-41.6,41.5-41.6c0,0,0,0,0,0 C72.2,7.7,90.8,26.3,90.8,49.2z"/>
  </g>

  <g>
    <defs>
        <path id="SVGID_1_" d="M84.8,49.2c0,19.7-15.9,35.6-35.6,35.6S13.6,68.9,13.6,49.2s15.9-35.6,35.6-35.6S84.8,29.6,84.8,49.2 L84.8,49.2z"/>
    </defs>
    <clipPath id="SVGID_2_">
        <use xlink:href="#SVGID_1_"  style="overflow:visible;"/>
    </clipPath>
    <g clip-path="url(#SVGID_2_)">
      <g>
        <rect fill="#010101" x="-5.4" y="12.8" width="54.6" height="36.4"/>
        <path fill="#E9AC21" d="M-5.4,49.2V18.9L3.7,25v24.2h9.1V12.8h9.1v36.4H31V12.8h9.1v36.4h9.1v-6.1L3.7,12.8V25l36.4,24.2H-5.4z"/>
      </g>
      <g>
        <rect fill="#FFFFFF" x="49.2" y="12.8" width="54.6" height="36.4"/>
        <path fill="#981F33" d="M76.5,12.8h27.3V31H49.2v18.2h27.3V12.8z"/>
        <path fill="#981F33" d="M76.5,46.7c1.3,0,2.3-1,2.3-2.3v-1.2h2.3c1.3-0.1,2.3-1.2,2.2-2.5c-0.1-1.2-1-2.1-2.2-2.2h-2.3 v-5.2h14.5v2.2c0,1.3,1,2.3,2.3,2.3s2.3-1,2.3-2.3v-2.2h2c1.3,0,2.3-1,2.4-2.3c0,0,0,0,0-0.1H76.5V46.7z"/>
        <path fill="#FFFFFF" d="M76.5,46.7c-1.3,0-2.3-1-2.3-2.3v-1.2H72c-1.3-0.1-2.3-1.2-2.2-2.5c0.1-1.2,1-2.1,2.2-2.2 h2.3v-5.2H59.7v2.2c0,1.3-1,2.3-2.3,2.3c-1.3,0-2.3-1-2.3-2.3v-2.2h-2c-1.3,0-2.3-1-2.4-2.3c0,0,0,0,0-0.1h25.8V46.7z"/>
        <path fill="#FFFFFF" d="M76.5,15.4c1.3,0,2.3,1,2.3,2.3v0v1.2h2.3c1.3,0,2.3,1,2.3,2.3c0,1.3-1,2.3-2.3,2.3h-2.3v5.2 h14.5v-2.3c0-1.3,1-2.3,2.3-2.3s2.3,1,2.3,2.3l0,0v2.3h2c1.3,0,2.3,1,2.4,2.3H76.5V15.4z"/>
        <path fill="#981F33" d="M76.5,15.4c-1.3,0-2.3,1-2.3,2.3v0v1.2H72c-1.3,0-2.3,1-2.3,2.3c0,1.3,1,2.3,2.3,2.3h2.3v5.2 H59.7v-2.3c0-1.3-1-2.3-2.3-2.3c-1.3,0-2.3,1-2.3,2.3v2.3h-2c-1.3,0-2.3,1-2.4,2.3h25.8V15.4z"/>
      </g>
      <g>
        <rect fill="#FFFFFF" x="-5.4" y="49.2" width="54.6" height="36.4"/>
        <path fill="#981F33" d="M21.9,49.2h27.3v18.2H-5.4v18.2h27.3V49.2z"/>
        <path fill="#981F33" d="M21.9,83.1c1.3,0,2.3-1,2.3-2.3l0,0v-1.2h2.3c1.3,0.1,2.4-0.9,2.5-2.2 c0.1-1.3-0.9-2.4-2.2-2.5c-0.1,0-0.2,0-0.3,0h-2.3v-5.2h14.5V72c0,1.3,1,2.3,2.3,2.3c1.3,0,2.3-1,2.3-2.3c0,0,0,0,0,0v-2.2h2 c1.3,0,2.3-1,2.3-2.3l0,0H21.9V83.1z"/>
        <path fill="#FFFFFF" d="M21.9,83.1c-1.3,0-2.3-1.1-2.3-2.3v-1.2h-2.3c-1.3-0.1-2.3-1.2-2.2-2.5 c0.1-1.2,1-2.1,2.2-2.2h2.3v-5.2H5.1V72c-0.1,1.3-1.2,2.3-2.5,2.2c-1.2-0.1-2.1-1-2.2-2.2v-2.2h-2c-1.3,0-2.3-1-2.3-2.3l0,0 h25.8V83.1z"/>
        <path fill="#FFFFFF" d="M21.9,51.8c1.3,0,2.3,1,2.3,2.3c0,0,0,0,0,0v1.2h2.3c1.3,0,2.3,1,2.3,2.3 c0,1.3-1,2.3-2.3,2.3h-2.3v5.2h14.5v-2.3c0-1.3,1-2.3,2.3-2.3c1.3,0,2.3,1,2.3,2.3v2.3h2c1.3,0,2.3,1,2.3,2.3l0,0H21.9V51.8z" />
        <path fill="#981F33" d="M21.9,51.8c-1.3,0-2.3,1.1-2.3,2.3v1.2h-2.3c-1.3,0-2.3,1-2.3,2.3c0,1.3,1,2.3,2.3,2.3h2.3 v5.2H5.1v-2.3c-0.1-1.3-1.2-2.3-2.5-2.2c-1.2,0.1-2.1,1-2.2,2.2v2.3h-2c-1.3,0-2.3,1-2.3,2.3l0,0h25.8V51.8z"/>
      </g>
      <g>
        <rect fill="#010101" x="49.2" y="49.2" width="54.6" height="36.4"/>
        <path fill="#E9AC21" d="M49.2,85.6V55.3l9.1,6.1v24.3h9.1V49.2h9.1v36.4h9.1V49.2h9.1v36.4h9.1v-6.1L58.3,49.2v12.1l36.4,24.3 H49.2z"/>
      </g>
    </g>
  </g>
  <g>
    <path fill="#A4213A" d="M141.7,45.9V23.2l-9.1,22.7h-1.4L122,23.2v22.7h-3.4v-27h4.8l8.4,20.8l8.4-20.8h4.8v27H141.7z"/>
    <path fill="#A4213A" d="M166.2,45.9V43c-1.5,2.1-4,3.3-6.6,3.3c-5.1,0-8.7-3.9-8.7-10.2s3.6-10.3,8.7-10.3c2.6,0,5.1,1.3,6.6,3.4 v-2.9h3v19.5H166.2z M166.2,40.5v-8.8c-1.3-1.9-3.5-3.1-5.8-3.1c-4,0-6.3,3.2-6.3,7.5s2.3,7.5,6.3,7.5 C162.7,43.6,164.9,42.4,166.2,40.5z"/>
    <path fill="#A4213A" d="M176.1,45.9V26.3h3v3.1c1.5-2.1,3.9-3.5,6.6-3.6V29c-0.4,0-0.8-0.1-1.2-0.1c-2.2,0.2-4.1,1.3-5.4,3.1v13.9 H176.1z"/>
    <path fill="#A4213A" d="M190,50.8l1.5-2.2c1.5,1.7,3.7,2.7,5.9,2.6c3.7,0,5.9-2.1,5.9-5.7v-2.9c-1.8,2-4.3,3.2-7,3.2 c-4.1,0-6.2-2-6.2-6.2V26.3h3v12.5c0,3.4,1.7,4.5,4.4,4.5c2.3-0.1,4.4-1.2,5.7-3v-14h3v19.3c0,5.5-4.1,8.2-8.9,8.2 C194.6,53.9,192,52.8,190,50.8z"/>
    <path fill="#A4213A" d="M213.3,41.8V18.9h3v22.2c0,1.5,0.6,2.5,2,2.5c0.8,0,1.5-0.3,2-0.8l0.9,2.3c-1,0.9-2.3,1.3-3.6,1.2 C214.8,46.3,213.3,44.7,213.3,41.8z"/>
    <path fill="#A4213A" d="M239.2,45.9V43c-1.5,2.1-4,3.4-6.6,3.4c-5.1,0-8.7-3.9-8.7-10.2s3.6-10.3,8.7-10.3c2.6,0,5.1,1.3,6.6,3.4v-3 h3v19.5H239.2z M239.2,40.5v-8.8c-1.3-1.9-3.5-3.1-5.8-3.1c-4,0-6.3,3.2-6.3,7.5s2.4,7.5,6.3,7.5 C235.7,43.6,237.8,42.4,239.2,40.5z"/>
    <path fill="#A4213A" d="M262.3,45.9V33.1c0-3.5-1.8-4.5-4.4-4.5c-2.3,0.1-4.4,1.2-5.8,3v14.3h-3V26.3h3v2.8c1.8-2,4.3-3.2,7-3.3 c4,0,6.2,2.1,6.2,6.3v13.7H262.3z"/>
    <path fill="#A4213A" d="M286.3,45.9V43c-1.5,2.1-4,3.4-6.6,3.4c-5.1,0-8.7-3.9-8.7-10.2s3.6-10.3,8.7-10.3c2.6,0,5.1,1.3,6.6,3.4 V18.9h3v27L286.3,45.9z M286.3,40.5v-8.8c-1.3-1.9-3.5-3.1-5.8-3.1c-4,0-6.3,3.2-6.3,7.5s2.4,7.5,6.3,7.5 C282.8,43.6,285,42.4,286.3,40.5z"/>
  </g>
  <g>
    <path fill="#ECB41F" d="M117.3,72.7c0-8.2,6-14,14.2-14s14.2,5.8,14.2,14s-6,14-14.1,14S117.3,80.9,117.3,72.7z M139.7,72.7 c0-5.1-3.2-8.9-8.2-8.9c-5,0-8.3,3.8-8.3,8.9s3.2,8.9,8.3,8.9C136.5,81.6,139.6,77.8,139.7,72.7L139.7,72.7z"/>
    <path fill="#ECB41F" d="M165,86.2V74.4c0-2.7-1.4-3.7-3.6-3.7c-1.8,0-3.4,0.9-4.5,2.3v13.2h-5.1V66.6h5.1v2.5c1.8-1.9,4.3-3,6.9-3 c4.3,0,6.4,2.4,6.4,6.2v13.8H165z"/>
    <path fill="#ECB41F" d="M176.2,76.4c-0.1-5.5,4.2-10.1,9.7-10.3c0.1,0,0.3,0,0.4,0c5.9,0,9.8,4.4,9.8,10.8v1.2h-14.6 c0.4,2.4,2.3,4.4,5.6,4.4c1.9,0,3.7-0.7,5.2-1.9l2.3,3.4c-2.3,1.8-5.1,2.8-8.1,2.7C180.6,86.7,176.2,82.7,176.2,76.4z M186.3,70.4 c-2.5-0.1-4.6,1.7-4.8,4.2h9.7c-0.1-2.5-2.3-4.4-4.7-4.2C186.4,70.4,186.3,70.4,186.3,70.4L186.3,70.4z"/>
    <path fill="#ECB41F" d="M200.3,82.4l3.2-4.5c2.2,2.4,5.3,3.7,8.6,3.7c3.2,0,4.7-1.4,4.7-3c0-4.7-15.6-1.4-15.6-11.6 c0-4.5,3.9-8.2,10.3-8.2c3.9-0.2,7.7,1.2,10.6,3.8l-3.2,4.3c-2.2-1.9-5-3-7.9-3c-2.4,0-3.8,1.1-3.8,2.7c0,4.3,15.5,1.4,15.5,11.5 c0,4.9-3.6,8.7-10.8,8.7C206.6,86.7,202.9,85,200.3,82.4z"/>
    <path fill="#ECB41F" d="M229.1,81.3V71.1h-3.2v-4.5h3.2v-5.4h5.1v5.4h4v4.5h-4v8.8c0,1.3,0.6,2.2,1.8,2.2c0.6,0,1.3-0.2,1.8-0.6 l1.1,3.9c-1.2,0.9-2.8,1.4-4.3,1.3C231,86.7,229.1,84.8,229.1,81.3z"/>
    <path fill="#ECB41F" d="M242.6,76.4c0-5.7,4.6-10.4,10.3-10.4c5.7,0,10.4,4.6,10.4,10.3c0,5.7-4.6,10.4-10.3,10.4c0,0-0.1,0-0.1,0 c-5.5,0.2-10.1-4-10.3-9.5C242.6,77,242.6,76.7,242.6,76.4z M258,76.4c0-3-1.8-5.7-5-5.7s-5,2.6-5,5.7s1.8,5.7,5,5.7 C256.2,82.1,258.1,79.5,258,76.4L258,76.4z"/>
    <path fill="#ECB41F" d="M274.6,83.7v10h-5.1V66.6h5.1v2.5c1.4-1.9,3.7-3,6-3c5,0,8.7,3.7,8.7,10.3s-3.7,10.3-8.7,10.3 C278.3,86.7,276.1,85.6,274.6,83.7z M284.1,76.4c0-3.4-2-5.7-5-5.7c-1.7,0-3.4,0.9-4.4,2.3v6.9c1.1,1.4,2.7,2.2,4.4,2.3 C282,82.1,284,79.8,284.1,76.4L284.1,76.4z"/>
  </g>

</svg>
